# xmcd CD database file
#
# Track frame offsets:
#	150
#	15732
#	34237
#	56951
#	76926
#	98892
#	121045
#	144299
#	162128
#	180769
#	202304
#	225020
#	247840
#	265257
#	288761
#	311138
#
# Disc length: 4404 seconds
#
# Revision: 12
# Processed by: cddbd v1.4PL0 Copyright (c) Steve Scherf et al.
# Submitted via: CDex 1.51
#
DISCID=c8113210
DTITLE=Rowling, J. K. (read by Jim Dale) - Harry Potter 4 and the Goblet of Fire [disk 03]
DYEAR=2000
DGENRE=Speech
TTITLE0=Chapter 07, Bagman and Crouch 08
TTITLE1=Chapter 08, The Quidditch World Cup 01
TTITLE2=Chapter 08, The Quidditch World Cup 02
TTITLE3=Chapter 08, The Quidditch World Cup 03
TTITLE4=Chapter 08, The Quidditch World Cup 04
TTITLE5=Chapter 08, The Quidditch World Cup 05
TTITLE6=Chapter 08, The Quidditch World Cup 06
TTITLE7=Chapter 08, The Quidditch World Cup 07
TTITLE8=Chapter 08, The Quidditch World Cup 08
TTITLE9=Chapter 09, The Dark Mark 01
TTITLE10=Chapter 09, The Dark Mark 02
TTITLE11=Chapter 09, The Dark Mark 03
TTITLE12=Chapter 09, The Dark Mark 04
TTITLE13=Chapter 09, The Dark Mark 05
TTITLE14=Chapter 09, The Dark Mark 06
TTITLE15=Chapter 09, The Dark Mark 07
EXTD=YEAR: 2000
EXTT0=
EXTT1=
EXTT2=
EXTT3=
EXTT4=
EXTT5=
EXTT6=
EXTT7=
EXTT8=
EXTT9=
EXTT10=
EXTT11=
EXTT12=
EXTT13=
EXTT14=
EXTT15=
PLAYORDER=
